<?xml version="1.0" encoding="utf-8"?>
<!-- Generator: Adobe Illustrator 22.0.1, SVG Export Plug-In . SVG Version: 6.00 Build 0)  -->
<svg version="1.1" id="Photography" xmlns="http://www.w3.org/2000/svg" xmlns:xlink="http://www.w3.org/1999/xlink" x="0px"
	 y="0px" viewBox="0 0 128 128" style="enable-background:new 0 0 128 128;" xml:space="preserve">
<style type="text/css">
	.st0{display:none;}
	.st1{display:inline;}
	.st2{fill:#9375CD;}
	.st3{fill:#D093D9;}
	.st4{fill:#494949;}
	.st5{display:inline;fill:#494949;}
	.st6{display:inline;fill:#9375CD;}
	.st7{display:inline;fill:#D093D9;}
	.st8{fill:#9100FF;}
	.st9{fill:#ED6245;}
	.st10{fill:#212127;}
</style>
<g id="row3" class="st0">
	<g id="icon:5_2_" class="st1">
		<path id="Shape_33_" class="st2" d="M94.5,87.8L80.2,75.5v-23l14.3-12.3V87.8z M83.2,74.1l8.3,7.1V46.8l-8.3,7.1V74.1z M33.5,87.8
			V40.2l14.3,12.3v23L33.5,87.8z M36.5,46.8v34.5l8.3-7.1V53.9L36.5,46.8z"/>
		<path id="Shape_32_" class="st3" d="M87.2,91.5H40.8l8.6-14.3h29.1L87.2,91.5z M46.2,88.5h35.7l-5-8.3H51.1L46.2,88.5z M78.5,50.8
			H49.5l-8.6-14.3h46.3L78.5,50.8z M51.1,47.8h25.7l5-8.3H46.2L51.1,47.8z"/>
		<path id="Shape_31_" class="st4" d="M79.5,76.5h-31v-25h31V76.5z M51.5,73.5h25v-19h-25V73.5z M64,72c-4.4,0-8-3.6-8-8s3.6-8,8-8
			s8,3.6,8,8S68.4,72,64,72z M64,59c-2.8,0-5,2.2-5,5c0,2.8,2.2,5,5,5c2.8,0,5-2.2,5-5S66.8,59,64,59z"/>
	</g>
	<g id="icon:4_2_" class="st1">
		<path id="Shape_35_" class="st3" d="M66.8,92.5h-5.7l-2.4-5.4c-0.6-0.1-1.2-0.3-1.8-0.5l-4.8,3.5l-4.9-2.8l0.6-5.8
			c-0.5-0.4-0.9-0.9-1.3-1.3l-5.9,0.6l-2.8-4.9l3.5-4.8c-0.2-0.6-0.3-1.2-0.5-1.8l-5.4-2.4v-5.7l5.4-2.4c0.1-0.6,0.3-1.2,0.5-1.8
			l-3.5-4.8l2.8-4.9l5.9,0.6c0.4-0.5,0.9-0.9,1.3-1.3l-0.6-5.9l4.9-2.8l4.8,3.5c0.6-0.2,1.2-0.3,1.8-0.5l2.4-5.4h5.7l2.4,5.4
			c0.6,0.1,1.2,0.3,1.8,0.5l4.8-3.5l4.9,2.8l-0.6,5.9c0.5,0.4,0.9,0.9,1.3,1.3l5.9-0.6l2.8,4.9L86.6,57c0.2,0.6,0.3,1.2,0.5,1.8
			l5.4,2.4v5.7l-5.4,2.4c-0.1,0.6-0.3,1.2-0.5,1.8l3.5,4.8l-2.8,4.9l-5.9-0.6c-0.4,0.5-0.9,0.9-1.3,1.3l0.6,5.9l-4.9,2.8L71,86.6
			c-0.6,0.2-1.2,0.3-1.8,0.5L66.8,92.5z M63.1,89.5h1.8l2.2-5l0.8-0.1c1-0.2,2-0.5,2.9-0.8l0.7-0.3l4.4,3.2l1.5-0.9l-0.6-5.5
			l0.6-0.5c0.8-0.7,1.5-1.4,2.1-2.1l0.5-0.6l5.5,0.6l0.9-1.5l-3.2-4.4l0.3-0.7c0.3-1,0.6-1.9,0.8-2.9l0.1-0.8l5-2.2v-1.8l-5-2.2
			l-0.1-0.8c-0.2-1-0.4-2-0.8-2.9l-0.3-0.7l3.2-4.4l-0.9-1.5l-5.5,0.6l-0.5-0.6c-0.7-0.8-1.4-1.5-2.1-2.1l-0.6-0.5l0.6-5.5L76,41.5
			l-4.4,3.2l-0.7-0.3c-1-0.3-1.9-0.6-2.9-0.8l-0.8-0.1l-2.2-5h-1.8l-2.2,5l-0.8,0.1c-1,0.2-2,0.5-2.9,0.8l-0.7,0.3L52,41.5l-1.5,0.9
			l0.6,5.5l-0.6,0.5c-0.8,0.7-1.5,1.4-2.1,2.1l-0.5,0.6l-5.5-0.6L41.5,52l3.2,4.4l-0.3,0.7c-0.3,1-0.6,1.9-0.8,2.9l-0.1,0.8l-5,2.2
			v1.8l5,2.2l0.1,0.8c0.2,1,0.5,2,0.8,2.9l0.3,0.7L41.5,76l0.9,1.5l5.5-0.6l0.5,0.6c0.7,0.8,1.4,1.5,2.1,2.1l0.6,0.5l-0.6,5.5
			l1.5,0.9l4.4-3.2l0.7,0.3c1,0.3,1.9,0.6,2.9,0.8l0.8,0.1L63.1,89.5z"/>
		<path id="Shape_34_" class="st4" d="M64,81.4c-9.6,0-17.4-7.8-17.4-17.4S54.4,46.6,64,46.6S81.4,54.4,81.4,64S73.6,81.4,64,81.4z
			 M64,49.6c-7.9,0-14.4,6.5-14.4,14.4S56.1,78.4,64,78.4S78.4,71.9,78.4,64S71.9,49.6,64,49.6z"/>
	</g>
	<g id="icon:3_2_" class="st1">
		<path id="Shape_45_" class="st4" d="M41.2,45.7v3h-9v-3H41.2z M51.2,45.7v3h29v27.1h3V45.7H51.2z M80.3,93.8h3v-8h-3V93.8z"/>
		<polygon id="Shape_41_" class="st3" points="95.8,82.3 44.7,82.3 44.7,34.2 47.7,34.2 47.7,79.3 95.8,79.3 		"/>
	</g>
	<g id="icon:2_2_" class="st1">
		<path id="Shape_40_" class="st4" d="M64,86.6c-12.5,0-22.6-10.2-22.6-22.6S51.5,41.4,64,41.4S86.6,51.5,86.6,64S76.5,86.6,64,86.6
			z M64,44.4c-10.8,0-19.6,8.8-19.6,19.6S53.2,83.6,64,83.6S83.6,74.8,83.6,64S74.8,44.4,64,44.4z"/>
		<path id="Shape_38_" class="st2" d="M65.5,100h-3v-7h3V100z M100,65.5h-7v-3h7V65.5z M35,65.5h-7v-3h7V65.5z M65.5,35h-3v-7h3V35z
			"/>
		<path id="Shape_39_" class="st3" d="M88.4,90.5l-5-5l2.1-2.1l5,5L88.4,90.5z M39.6,90.5l-2.1-2.1l5-5l2.1,2.1L39.6,90.5z
			 M85.5,44.6l-2.1-2.1l5-5l2.1,2.1L85.5,44.6z M42.5,44.6l-5-5l2.1-2.1l5,5L42.5,44.6z"/>
	</g>
	<g id="icon:1_2_" class="st1">
		<path id="Shape_37_" class="st4" d="M40.5,97.5c-2.6,0-5.2-1.1-7.1-3.1c-1.9-2-2.9-4.5-2.9-6.9c0-0.4,0-0.8,0.1-1.2
			c0.2-1.8,1.1-3.4,2.3-4.7c-1.5-1.6-2.3-3.7-2.3-5.8c0-2.2,0.8-4.2,2.3-5.8c-1.5-1.6-2.3-3.7-2.3-5.9l0-0.1c0-2.1,0.9-4.1,2.3-5.7
			c-1.5-1.6-2.3-3.7-2.3-5.9c0-2.2,0.8-4.2,2.3-5.8c-1.3-1.4-2.1-3.2-2.3-5.1c0-0.3,0-0.6,0-0.9c0-2.6,1.1-5.1,3.1-7
			c2.2-2.1,5.2-3.2,8-2.8c1.8,0.2,3.5,1,4.8,2.3c1.7-1.5,3.8-2.4,6-2.3c2.1,0,4.1,0.9,5.7,2.3c1.6-1.5,3.7-2.3,5.9-2.3c0,0,0,0,0,0
			c2.1,0,4.2,0.8,5.8,2.3c1.6-1.5,3.7-2.3,5.9-2.3c0,0,0,0,0,0c2.1,0,4.2,0.8,5.8,2.3c1.4-1.3,3.2-2.1,5.2-2.3
			c2.9-0.3,5.8,0.8,7.9,3c1.8,1.8,2.8,4.4,2.8,6.9c0,0.4,0,0.7-0.1,1.1c-0.2,1.9-1,3.6-2.2,5c1.5,1.6,2.3,3.7,2.3,5.8
			c0,2.2-0.8,4.3-2.3,5.9c1.5,1.6,2.3,3.7,2.3,5.8c0,2.2-0.8,4.2-2.3,5.9c1.5,1.6,2.3,3.6,2.3,5.7l0,0.1c0,2.2-0.8,4.3-2.3,5.9
			c1.3,1.4,2,3,2.3,4.8c0,0.4,0.1,0.7,0.1,1.1c0,2.5-1,4.9-2.9,6.9c-2.1,2.2-5,3.4-7.9,3.1c-1.9-0.2-3.7-1-5.2-2.3
			c-1.6,1.5-3.7,2.3-5.8,2.3c0,0,0,0,0,0c-2.2,0-4.2-0.8-5.9-2.3c-1.6,1.5-3.6,2.3-5.7,2.3c-2.3,0-4.4-0.8-6-2.3
			c-1.6,1.5-3.7,2.3-5.8,2.3c0,0,0,0,0,0c-2.2,0-4.2-0.8-5.8-2.3c-1.4,1.3-3.2,2.2-5.1,2.4C41.1,97.5,40.8,97.5,40.5,97.5z
			 M40.6,33.6c-1.7,0-3.4,0.7-4.8,2.1c-1.4,1.3-2.2,3.1-2.2,4.9c0,0.2,0,0.4,0,0.6c0.2,1.7,1,3.2,2.4,4.2l1.6,1.2l-1.6,1.2
			c-1.5,1.2-2.4,2.8-2.4,4.6c0,1.8,0.9,3.5,2.4,4.7l1.6,1.2L36,59.4c-1.5,1.1-2.4,2.7-2.4,4.5c0,1.9,0.9,3.6,2.5,4.8l1.6,1.2
			L36.1,71c-1.6,1.2-2.4,2.8-2.4,4.6c0,1.8,0.9,3.5,2.4,4.7l1.6,1.2L36,82.7c-1.4,1-2.2,2.3-2.5,3.9c0,0.3-0.1,0.5-0.1,0.8
			c0,1.7,0.7,3.4,2.1,4.9c1.5,1.6,3.5,2.4,5.5,2.2c1.7-0.2,3.1-1.1,4.2-2.5l1.2-1.6l1.2,1.6c1.2,1.6,2.9,2.4,4.7,2.4c0,0,0,0,0,0
			c1.8,0,3.4-0.9,4.6-2.4l1.2-1.6l1.2,1.6c1.2,1.6,2.9,2.5,4.8,2.5c1.7,0,3.4-0.9,4.5-2.4l1.2-1.6l1.2,1.6c1.2,1.6,2.9,2.4,4.7,2.4
			c0,0,0,0,0,0c1.8,0,3.4-0.9,4.6-2.4l1.2-1.6l1.2,1.6c1.1,1.4,2.6,2.3,4.2,2.4c2,0.2,4-0.6,5.4-2.2c1.3-1.4,2.1-3.1,2.1-4.8
			c0-0.2,0-0.5,0-0.7c-0.2-1.6-1-2.9-2.4-4l-1.6-1.2l1.6-1.2c1.6-1.2,2.5-2.9,2.5-4.7c0-1.8-0.9-3.5-2.4-4.6l-1.6-1.2l1.6-1.2
			c1.6-1.2,2.4-2.9,2.4-4.7c0-1.8-0.9-3.5-2.4-4.6l-1.6-1.2L92,57c1.6-1.2,2.4-2.9,2.4-4.7c0-1.8-0.9-3.5-2.4-4.6l-1.6-1.2l1.6-1.2
			c1.4-1,2.2-2.5,2.4-4.1c0-0.2,0-0.5,0-0.7c0-1.8-0.7-3.5-2-4.8c-1.5-1.5-3.5-2.3-5.4-2.1c-1.7,0.2-3.2,1.1-4.3,2.5l-1.2,1.6
			L80.4,36c-1.2-1.5-2.8-2.4-4.6-2.4c0,0,0,0,0,0c-1.8,0-3.5,0.9-4.7,2.4l-1.2,1.6L68.7,36c-1.2-1.5-2.8-2.4-4.6-2.4c0,0,0,0,0,0
			c-1.8,0-3.5,0.9-4.7,2.4l-1.2,1.6L57,36c-1.1-1.5-2.7-2.4-4.5-2.4c-1.8-0.1-3.6,0.9-4.8,2.5l-1.2,1.6L45.3,36
			c-1-1.4-2.4-2.2-4-2.4C41.1,33.6,40.9,33.6,40.6,33.6z"/>
		<path id="Shape_36_" class="st2" d="M41.8,92c-1.5,0-3-0.7-4.1-1.8c-1.3-1.4-1.9-3.2-1.7-4.8c0.2-1.4,1.1-2.7,2.4-3.5
			c0.5-0.3,0.8-0.8,0.9-1.4c0-0.6-0.3-1.2-0.9-1.5c-1.4-0.9-2.3-2.5-2.3-4.1c0-1.6,0.8-3.1,2.3-4c0.6-0.4,0.9-0.9,0.9-1.4
			c0-0.6-0.3-1.1-0.9-1.5c-1.5-0.9-2.3-2.5-2.3-4.2c0-1.6,0.9-3.1,2.4-3.9c0.5-0.3,0.8-0.8,0.9-1.4c0-0.6-0.3-1.2-0.9-1.5
			c-1.4-0.9-2.3-2.5-2.3-4.1c0-1.6,0.8-3.1,2.3-4c0.6-0.4,0.9-0.9,0.9-1.4c0-0.6-0.3-1.1-0.9-1.5c-1.3-0.9-2.2-2.2-2.3-3.7
			c-0.2-1.6,0.5-3.3,1.8-4.5c1.3-1.3,3-1.9,4.7-1.7c1.4,0.2,2.7,1,3.5,2.3c0.4,0.6,0.9,0.9,1.4,0.9c0,0,0,0,0,0
			c0.6,0,1.1-0.3,1.5-0.9c1-1.5,2.5-2.4,4.2-2.3c1.6,0,3.1,0.9,3.9,2.4c0.3,0.5,0.8,0.8,1.4,0.9c0.6,0,1.2-0.3,1.5-0.9
			c0.9-1.4,2.5-2.3,4.1-2.3c0,0,0,0,0,0c1.6,0,3.1,0.8,4,2.3c0.4,0.6,0.8,0.8,1.4,0.9c0.6,0,1.1-0.3,1.5-0.9
			c0.9-1.4,2.5-2.3,4.1-2.3c0,0,0,0,0,0c1.6,0,3.1,0.8,4,2.3c0.4,0.6,0.9,0.8,1.4,0.9c0.6,0,1.1-0.3,1.5-0.9
			c0.9-1.3,2.2-2.2,3.8-2.3c1.6-0.2,3.3,0.5,4.5,1.7c1.2,1.2,1.8,3,1.6,4.6c-0.2,1.5-1,2.8-2.2,3.6c-0.6,0.4-0.9,0.9-0.9,1.5
			c0,0.6,0.3,1.1,0.9,1.4c1.5,0.9,2.3,2.4,2.3,4c0,1.6-0.9,3.2-2.3,4.1c-0.6,0.4-0.9,0.9-0.9,1.5c0,0.6,0.3,1.1,0.9,1.4
			c1.5,0.9,2.3,2.4,2.3,4c0,1.6-0.9,3.1-2.3,4.1c-0.6,0.4-0.9,0.9-0.9,1.5c0,0.5,0.3,1,0.9,1.4c1.5,0.9,2.3,2.3,2.4,3.9
			c0,1.7-0.8,3.2-2.3,4.2c-0.6,0.4-0.9,0.9-0.9,1.5c0,0.6,0.3,1.1,0.9,1.4l0,0c1.3,0.8,2.1,2.1,2.3,3.5c0.2,1.6-0.4,3.3-1.7,4.7
			c-1.2,1.3-2.9,2-4.5,1.8c-1.5-0.1-2.9-1-3.7-2.3c-0.4-0.6-0.9-0.9-1.5-0.9c0,0,0,0,0,0c-0.6,0-1.1,0.3-1.4,0.9
			c-0.9,1.5-2.4,2.3-4,2.3c0,0,0,0,0,0c-1.6,0-3.1-0.9-4.1-2.3c-0.4-0.6-0.9-0.9-1.5-0.9c-0.5,0-1,0.3-1.4,0.9
			c-0.9,1.5-2.3,2.3-3.9,2.4c-1.7,0.1-3.2-0.8-4.2-2.3c-0.4-0.6-0.9-0.9-1.5-0.9c0,0,0,0,0,0c-0.6,0-1.1,0.3-1.4,0.9
			c-0.9,1.5-2.4,2.3-4,2.3c0,0,0,0,0,0c-1.6,0-3.1-0.9-4.1-2.3c-0.4-0.6-1-0.9-1.5-0.9c-0.5,0-1,0.3-1.4,0.9
			c-0.8,1.4-2.2,2.2-3.7,2.4C42.2,92,42,92,41.8,92z M42,39.1c-0.7,0-1.4,0.3-2,0.9c-0.6,0.6-1,1.4-0.9,2.1c0.1,0.6,0.4,1.1,0.9,1.5
			c1.4,0.9,2.3,2.4,2.3,4c0,1.6-0.8,3-2.3,4c-0.6,0.4-0.9,0.9-0.9,1.5c0,0.6,0.3,1.2,0.9,1.6c1.4,0.9,2.3,2.5,2.3,4.1
			c0,1.6-0.9,3-2.3,3.9c-0.7,0.4-0.9,1-0.9,1.4c0,0.6,0.3,1.2,0.9,1.6c1.4,0.9,2.3,2.4,2.3,4c0,1.6-0.8,3-2.3,4
			c-0.6,0.4-0.9,0.9-0.9,1.5c0,0.6,0.3,1.2,0.9,1.6c1.4,0.9,2.3,2.5,2.3,4.1c0,1.6-0.9,3-2.3,3.9c-0.6,0.3-0.9,0.8-1,1.3
			c-0.1,0.7,0.2,1.6,0.9,2.3c0.6,0.6,1.4,0.9,2.1,0.9c0.4,0,1-0.2,1.5-1c0.9-1.4,2.3-2.3,3.9-2.3c0,0,0,0,0.1,0c1.6,0,3.1,0.8,4,2.3
			c0.4,0.6,1,0.9,1.6,0.9c0,0,0,0,0,0c0.6,0,1.1-0.3,1.5-0.9c0.9-1.4,2.4-2.3,4-2.3c0,0,0,0,0,0c1.6,0,3.1,0.8,4,2.3
			c0.4,0.6,1,0.9,1.6,0.9c0,0,0,0,0,0c0.4,0,1-0.2,1.4-0.9c0.9-1.4,2.3-2.3,3.9-2.3c0,0,0,0,0.1,0c1.6,0,3.1,0.8,4,2.3
			c0.4,0.6,1,1,1.6,0.9c0.6,0,1.1-0.3,1.5-0.9c0.9-1.4,2.4-2.3,4-2.3c0,0,0,0,0,0c1.6,0,3.1,0.8,4,2.3c0.4,0.6,0.9,0.9,1.5,0.9
			c0.7,0.1,1.5-0.3,2.1-0.9c0.7-0.7,1-1.5,0.9-2.2c-0.1-0.5-0.4-1-0.9-1.3l0,0c-1.4-0.9-2.3-2.4-2.3-4c0-1.6,0.8-3.1,2.3-4
			c0.6-0.4,1-1,0.9-1.6c0-0.4-0.2-1-0.9-1.4c-1.4-0.9-2.3-2.3-2.3-3.9c0-1.6,0.8-3.2,2.3-4.1c0.6-0.4,0.9-1,0.9-1.6
			c0-0.6-0.3-1.1-0.9-1.5c-1.4-0.9-2.3-2.4-2.3-4c0-1.6,0.8-3.1,2.3-4c0.6-0.4,0.9-1,0.9-1.6c0-0.6-0.3-1.1-0.9-1.5
			c-1.4-0.9-2.3-2.4-2.3-4c0-1.6,0.8-3.1,2.3-4c0.6-0.4,0.8-1,0.9-1.4c0.1-0.8-0.2-1.6-0.8-2.2c-0.6-0.6-1.3-0.9-2.1-0.9
			c-0.6,0.1-1.2,0.4-1.5,1c-0.9,1.4-2.4,2.3-4,2.3c0,0,0,0,0,0c-1.6,0-3-0.8-4-2.3c-0.4-0.6-0.9-0.9-1.5-0.9c0,0,0,0,0,0
			c-0.6,0-1.2,0.3-1.6,0.9c-0.9,1.4-2.4,2.3-4,2.3c0,0,0,0,0,0c-1.6,0-3-0.8-4-2.3c-0.4-0.6-0.9-0.9-1.5-0.9c-0.6,0-1.2,0.3-1.6,0.9
			c-0.9,1.4-2.5,2.3-4.1,2.3c-1.6,0-3-0.9-3.9-2.3c-0.4-0.7-1-0.9-1.4-0.9c-0.6,0-1.2,0.3-1.6,0.9c-0.9,1.4-2.4,2.3-4,2.3
			c0,0,0,0,0,0c-1.6,0-3-0.8-4-2.3c-0.3-0.5-0.8-0.9-1.3-0.9C42.1,39.1,42.1,39.1,42,39.1z"/>
	</g>
</g>
<g id="row2">
	<g id="icon:5_1_" class="st0">
		<path id="Shape_28_" class="st5" d="M133,34.6v71h-28.9v-5.2h23.7V39.8H1.4v60.6h27.1v5.2H-3.8v-71H17V20.8h5.2v13.9h88.3V20.8
			h5.2v13.9H133z M120,86.6H12.7v5.2H120V86.6z M94.9,116H37.8v-1.7h57.2V116z M94.9,107.4H37.8v-1.7h57.2V107.4z M94.9,98.7H37.8
			V97h57.2V98.7z"/>
		<path id="Shape_29_" class="st6" d="M106.2,128.1H26.5V86.6h79.7V128.1z M31.7,122.9H101V91.8H31.7V122.9z M107.1,39.8H25.7V0
			h81.4V39.8z M30.9,34.6h71V5.2h-71V34.6z"/>
		<path id="Shape_30_" class="st7" d="M88.9,66.7c-4.8,0-8.7-3.9-8.7-8.7s3.9-8.7,8.7-8.7s8.7,3.9,8.7,8.7S93.6,66.7,88.9,66.7z
			 M88.9,54.5c-1.9,0-3.5,1.6-3.5,3.5s1.6,3.5,3.5,3.5c1.9,0,3.5-1.6,3.5-3.5S90.8,54.5,88.9,54.5z M111.4,66.7
			c-4.8,0-8.7-3.9-8.7-8.7s3.9-8.7,8.7-8.7s8.7,3.9,8.7,8.7S116.2,66.7,111.4,66.7z M111.4,54.5c-1.9,0-3.5,1.6-3.5,3.5
			s1.6,3.5,3.5,3.5s3.5-1.6,3.5-3.5S113.3,54.5,111.4,54.5z"/>
	</g>
	<g id="icon:4_1_" class="st0">
		<polygon id="Shape_25_" class="st6" points="9.7,104.4 5.3,101.6 48.1,33 62,72.7 80.1,49.6 106.8,101.8 102.1,104.2 79.2,59.2 
			60.3,83.4 46.8,44.9 		"/>
		<path id="Shape_24_" class="st5" d="M125.2,107.4H4V20.8h121.2V107.4z M9.2,102.2H120V26H9.2V102.2z"/>
		<path id="Shape_23_" class="st7" d="M97.5,54.5c-6.2,0-11.3-5-11.3-11.3S91.3,32,97.5,32s11.3,5,11.3,11.3S103.7,54.5,97.5,54.5z
			 M97.5,37.2c-3.3,0-6.1,2.7-6.1,6.1c0,3.3,2.7,6.1,6.1,6.1c3.3,0,6.1-2.7,6.1-6.1C103.6,39.9,100.9,37.2,97.5,37.2z"/>
	</g>
	<g id="icon:3_1_" class="st0">
		<path id="Shape_22_" class="st7" d="M61.8,62.6l-4.2-3.1c0.7-1,15.7-21.3,35.8-31.6c-30-5.2-47,18.9-47.8,20l-4.3-2.9
			c0.2-0.3,22.7-32.4,61-20.2l7.4,2.4l-7.3,2.6C80.2,37.6,62,62.4,61.8,62.6z"/>
		<path id="Shape_21_" class="st6" d="M89.6,93.3L86.7,89c1.1-0.8,25.8-17.9,20.5-48.3C96.5,61.4,75.6,76.4,74.6,77.1l-3-4.2
			c0.3-0.2,25.4-18.3,33.9-41.1l2.6-7.1l2.3,7.2C122.6,70.6,89.9,93.1,89.6,93.3z"/>
		<path id="Shape_20_" class="st5" d="M102.6,117.5l-0.2-5.9c-0.2-6.3-1.7-10.6-4.5-13.1c-2.5-2.3-6.2-3.3-11.5-3l-2.6,0.1L83.7,93
			c-0.5-11.8-3.8-15.4-14.5-15.6l-30.4,30.4c-6,7.2-13.8,10.2-21.2,8.3c-7.1-1.8-12.6-7.9-14.2-16c-1-5.1,3.3-10.9,7.7-12.6
			c3.1-1.2,6-0.2,7.6,2.6l0.4,0.7L19,91.6c-0.7,6,0.3,7.9,0.8,8.1c0.9,0.5,4.2-1.2,6.5-3.4l31-31c0.1-4.8-1.1-8.5-3.4-10.8
			c-2.6-2.6-6.6-3.8-11.9-3.5l-3.2,0.2l0.6-3.2c0.7-4.1,0.2-7.4-1.7-9.7c-2.3-2.9-6.9-4.5-13.4-4.8l-6-0.2l4.3-4.2
			c0.4-0.4,39.7-37.9,79.6-4.5l11.3-3.3L110.8,32c36.3,40.9-3.6,81-4,81.4L102.6,117.5z M13.6,92.2c-0.2,0-0.4,0-0.7,0.2
			C10.6,93.2,8,96.6,8.5,99c1.2,6.1,5.2,10.7,10.4,12c5.5,1.4,11.4-1,16.1-6.7l0.2-0.2l32-32h1.1c13.4,0,19.4,5.1,20.6,18.1
			c5.4,0.1,9.6,1.6,12.7,4.4c2.7,2.5,4.5,6,5.5,10.7c3.3-4.1,7.9-10.9,10.9-19.3c6.6-18.5,2.7-35.8-11.8-51.6l-0.9-1l1.2-4.8
			l-5.3,1.6l-1.1-0.9C84.4,15.9,67.4,12.4,49.2,18.9c-8,2.8-14.5,7.1-18.6,10.1c4.9,1,8.6,3,11,6c2.3,2.9,3.4,6.5,3.1,10.8
			c5.4,0.2,9.7,1.9,12.8,5c3.6,3.6,5.3,8.9,4.9,15.8l-0.1,1l-32.5,32.5c-1.3,1.2-7.6,6.7-12.5,4.3c-4.3-2.2-4-8.8-3.7-12.2
			C13.7,92.2,13.7,92.2,13.6,92.2z"/>
	</g>
	<g id="icon:2_1_" class="st0">
		<path id="Shape_19_" class="st7" d="M84.5,53.7H44.7v-3.5h39.8V53.7z M84.5,45H44.7v-3.5h39.8V45z M84.5,36.4H44.7v-3.5h39.8V36.4
			z"/>
		<path id="Shape_18_" class="st6" d="M77.3,122.9H52v-13.2H38.6V60.5h52v49.2H77.3V122.9z M57.2,117.7h14.9v-13.2h13.3V65.7H43.8
			v38.8h13.3V117.7z"/>
		<path id="Shape_17_" class="st5" d="M97.5,65.8H31.7c-4.3,0-7.8-3.5-7.8-7.8V28.6c0-4.3,3.5-7.8,7.8-7.8h65.8
			c4.3,0,7.8,3.5,7.8,7.8V58C105.3,62.3,101.8,65.8,97.5,65.8z M31.7,26c-1.4,0-2.6,1.2-2.6,2.6V58c0,1.4,1.2,2.6,2.6,2.6h65.8
			c1.4,0,2.6-1.2,2.6-2.6V28.6c0-1.4-1.2-2.6-2.6-2.6H31.7z M139.3,81.3l-24.8-14.6l2.6-4.5l24.8,14.6L139.3,81.3z M-10.1,81.3
			l-2.6-4.5l24.8-14.6l2.6,4.5L-10.1,81.3z M147.8,45.9h-27.6v-5.2h27.6V45.9z M9.1,45.9h-27.6v-5.2H9.1V45.9z M117.2,24.3l-2.6-4.5
			l24.8-14.6l2.6,4.5L117.2,24.3z M12.1,24.3L-12.7,9.7l2.6-4.5l24.8,14.6L12.1,24.3z"/>
	</g>
	<g id="icon:1_1_">
		<polygon id="Shape_16_" class="st8" points="66,93.1 63.2,88.7 85.1,74.6 83.6,51.4 28.9,23 31.3,18.4 83.3,45.3 81.2,12.8 
			86.4,12.5 90.1,71.4 119.2,52.7 122,57.1 		"/>
		<polygon id="Shape_15_" class="st9" points="98.8,109.8 46,82.8 48,115.3 42.8,115.6 39.2,56.7 10.1,75.4 7.3,71 58.3,38.2 
			63.6,41 44.2,53.5 45.6,76.7 102.7,106 		"/>
		<path id="Shape_14_" class="st10" d="M64.6,122.1c-32,0-58-26-58-58s26-58,58-58s58,26,58,58S96.6,122.1,64.6,122.1z M64.6,11.2
			c-29.1,0-52.8,23.7-52.8,52.8c0,29.1,23.7,52.8,52.8,52.8s52.8-23.7,52.8-52.8C117.4,34.9,93.7,11.2,64.6,11.2z"/>
	</g>
</g>
<g id="row1">
	<g id="icon:5" class="st0">
		<path id="Shape_46_" class="st7" d="M85,58.5h-2v-20h2V58.5z M75,58.5h-2v-20h2V58.5z M65,58.5h-2v-20h2V58.5z M55,58.5h-2v-20h2
			V58.5z M45,58.5h-2v-20h2V58.5z"/>
		<path id="Shape_10_" class="st6" d="M86.8,81h-1V69h1V81z M81.8,81h-1V69h1V81z M76.8,81h-1V69h1V81z M71.8,81h-1V69h1V81z
			 M66.8,81h-1V69h1V81z M61.8,81h-1V69h1V81z M56.8,81h-1V69h1V81z M51.8,81h-1V69h1V81z M46.8,81h-1V69h1V81z M41.8,81h-1V69h1V81
			z"/>
		<path id="Shape_9_" class="st5" d="M81.6,96.4H46.4v-4.5h-8.3v-8.6h-3V66.8h3v-5.9h-3.5V36.5h3.5v-4.9h51.5v4.9h3.8v24.3h-3.8v5.9
			h3.3v16.5h-3.3v8.6h-8V96.4z M49.4,93.4h29.2v-1.5H49.4V93.4z M80.1,88.9h6.5v-5.6H41.1v5.6H80.1z M88.1,80.3h1.8V69.8H38.1v10.5
			H88.1z M41.1,66.8h45.5v-5.9H41.1V66.8z M88.1,57.9h2.3V39.5H37.6v18.3H88.1z M41.1,36.5h45.5v-1.9H41.1V36.5z"/>
	</g>
	<g id="icon:4" class="st0">
		<path id="Shape_11_" class="st7" d="M86.9,87H64.8V41h35c1.9,0,3.5,1.6,3.5,3.5V62c0,1.9-1.5,3.4-3.3,3.5c-3.7,0.2-6.5,1-7.4,2.3
			c-1.6,2.1-1.9,9.4-2,13.4c0,1-0.1,1.8-0.1,2.5C90.2,85.6,88.7,87,86.9,87z M67.8,84h19.1c0.3,0,0.5-0.2,0.5-0.5
			c0-0.7,0.1-1.5,0.1-2.4c0.2-6.4,0.6-12.4,2.6-15.1c2-2.6,6.4-3.4,9.7-3.5c0.3,0,0.5-0.2,0.5-0.5V44.5c0-0.3-0.2-0.5-0.5-0.5h-32
			V84z"/>
		<path id="Shape_13_" class="st5" d="M59,34.7V30H33.5v4.7h-8.8v7.8h0v45.1h0v5.8h8.8V98H59v-4.7h8.8V34.7H59z M36.5,33H56v1.7
			H36.5V33z M27.8,37.7h37v2.8h-37C27.8,40.5,27.8,37.7,27.8,37.7z M56,95H36.5v-1.7H56C56,93.3,56,95,56,95z M64.8,90.3h-37v-2.8
			h37V90.3z M64.8,84.5h-37v-41h37V84.5z"/>
		<path id="Shape_12_" class="st6" d="M73.8,54.5h-4v-8h4V54.5z M80.8,46.5h-4v8h4V46.5z M87.8,46.5h-4v8h4V46.5z M94.8,46.5h-4v8h4
			V46.5z M80.8,73.5h-4v8h4V73.5z M73.8,73.5h-4v8h4V73.5z"/>
	</g>
	<g id="icon:3" class="st0">
		<path id="Shape_8_" class="st5" d="M87.5,94.5h-47v-32h2.9v-5h-2.9v-9.7l13.6-14.3h33.4V94.5z M43.5,91.5h41v-55H55.4L43.5,49v5.5
			h2.9v11h-2.9V91.5z"/>
		<path id="Shape_7_" class="st6" d="M81.5,52.5h-4v-14h4V52.5z M75.7,38.5h-4v14h4V38.5z M70,38.5h-4v14h4V38.5z M64.2,38.5h-4v14
			h4V38.5z M58.5,38.5h-4v14h4V38.5z"/>
		<rect id="Shape_6_" x="48" y="46.1" class="st7" width="4" height="14.8"/>
	</g>
	<g id="icon:2" class="st0">
		<path id="Shape_5_" class="st5" d="M65.5,72.9h-3v-20h3V72.9z M57.3,53.1l-2.7-1.4l-20,39l2.7,1.4L57.3,53.1z M93.3,90.7l-20-39
			l-2.7,1.4l20,39L93.3,90.7z M66.5,40.9h-5v7h5V40.9z"/>
		<rect id="Shape_4_" x="53.5" y="46.4" class="st6" width="21" height="7"/>
		<rect id="Shape_3_" x="50" y="35.9" class="st7" width="28" height="5"/>
	</g>
	<g id="icon:1" class="st0">
		<path id="Shape_2_" class="st5" d="M93,45h-5.9l-6.9-8H59.7l-6.9,8H46v-4h-9v4h-2c-3,0-5.5,2.5-5.5,5.5v35c0,3,2.5,5.5,5.5,5.5h58
			c3,0,5.5-2.5,5.5-5.5v-35C98.5,47.5,96,45,93,45z M61.1,40h17.8l4.3,5H56.8L61.1,40z M95.5,85.5c0,1.4-1.1,2.5-2.5,2.5H35
			c-1.4,0-2.5-1.1-2.5-2.5v-35c0-1.4,1.1-2.5,2.5-2.5h58c1.4,0,2.5,1.1,2.5,2.5V85.5z"/>
		<path id="Shape_1_" class="st6" d="M65,86.8c-10.2,0-18.5-8.3-18.5-18.5S54.8,49.8,65,49.8s18.5,8.3,18.5,18.5S75.2,86.8,65,86.8z
			 M65,52.8c-8.5,0-15.5,7-15.5,15.5s7,15.5,15.5,15.5s15.5-7,15.5-15.5S73.5,52.8,65,52.8z"/>
		<path id="Shape" class="st7" d="M65,81.8c-7.4,0-13.5-6.1-13.5-13.5S57.6,54.8,65,54.8s13.5,6.1,13.5,13.5S72.4,81.8,65,81.8z
			 M65,56.8c-6.3,0-11.5,5.2-11.5,11.5S58.7,79.8,65,79.8s11.5-5.2,11.5-11.5S71.3,56.8,65,56.8z"/>
	</g>
</g>
</svg>
